<mxfile host="app.diagrams.net" agent="Mozilla/5.0 (Windows NT 10.0; Win64; x64) AppleWebKit/537.36 (KHTML, like Gecko) Chrome/130.0.0.0 Safari/537.36" version="24.8.1">
  <diagram name="Página-1" id="Wtn4fc2ochVzjDbTPkas">
    <mxGraphModel dx="1050" dy="557" grid="1" gridSize="10" guides="1" tooltips="1" connect="1" arrows="1" fold="1" page="1" pageScale="1" pageWidth="827" pageHeight="1169" math="0" shadow="0">
      <root>
        <mxCell id="0" />
        <mxCell id="1" parent="0" />
        <mxCell id="_9yUBP7RWlpq5ExPo_8N-34" value="" style="group" vertex="1" connectable="0" parent="1">
          <mxGeometry x="440" y="20" width="200" height="240" as="geometry" />
        </mxCell>
        <mxCell id="_9yUBP7RWlpq5ExPo_8N-27" value="&lt;div&gt;&lt;br&gt;&lt;/div&gt;&lt;div&gt;&lt;br&gt;&lt;/div&gt;&lt;div&gt;&lt;br&gt;&lt;/div&gt;&lt;div&gt;&lt;br&gt;&lt;/div&gt;&lt;div&gt;&lt;br&gt;&lt;/div&gt;&lt;div&gt;&lt;br&gt;&lt;/div&gt;&lt;div&gt;&lt;br&gt;&lt;/div&gt;&lt;div&gt;&lt;br&gt;&lt;/div&gt;&lt;div&gt;&lt;br&gt;&lt;/div&gt;&lt;div&gt;&lt;br&gt;&lt;/div&gt;&lt;div&gt;&lt;br&gt;&lt;/div&gt;&lt;div style=&quot;font-size: 25px;&quot;&gt;CDI&lt;/div&gt;" style="rounded=0;whiteSpace=wrap;html=1;" vertex="1" parent="_9yUBP7RWlpq5ExPo_8N-34">
          <mxGeometry width="200" height="240" as="geometry" />
        </mxCell>
        <mxCell id="_9yUBP7RWlpq5ExPo_8N-16" value="" style="whiteSpace=wrap;html=1;aspect=fixed;" vertex="1" parent="_9yUBP7RWlpq5ExPo_8N-34">
          <mxGeometry x="10" y="20" width="110" height="110" as="geometry" />
        </mxCell>
        <mxCell id="_9yUBP7RWlpq5ExPo_8N-17" value="" style="whiteSpace=wrap;html=1;aspect=fixed;" vertex="1" parent="_9yUBP7RWlpq5ExPo_8N-34">
          <mxGeometry x="20" y="35" width="35" height="35" as="geometry" />
        </mxCell>
        <mxCell id="_9yUBP7RWlpq5ExPo_8N-18" value="" style="whiteSpace=wrap;html=1;aspect=fixed;" vertex="1" parent="_9yUBP7RWlpq5ExPo_8N-34">
          <mxGeometry x="20" y="80" width="35" height="35" as="geometry" />
        </mxCell>
        <mxCell id="_9yUBP7RWlpq5ExPo_8N-20" value="" style="whiteSpace=wrap;html=1;aspect=fixed;" vertex="1" parent="_9yUBP7RWlpq5ExPo_8N-34">
          <mxGeometry x="70" y="35" width="35" height="35" as="geometry" />
        </mxCell>
        <mxCell id="_9yUBP7RWlpq5ExPo_8N-21" value="" style="whiteSpace=wrap;html=1;aspect=fixed;" vertex="1" parent="_9yUBP7RWlpq5ExPo_8N-34">
          <mxGeometry x="70" y="80" width="35" height="35" as="geometry" />
        </mxCell>
        <mxCell id="_9yUBP7RWlpq5ExPo_8N-22" value="" style="rounded=0;whiteSpace=wrap;html=1;rotation=90;" vertex="1" parent="_9yUBP7RWlpq5ExPo_8N-34">
          <mxGeometry x="95" y="50" width="132.5" height="62.5" as="geometry" />
        </mxCell>
        <mxCell id="_9yUBP7RWlpq5ExPo_8N-23" value="" style="whiteSpace=wrap;html=1;aspect=fixed;" vertex="1" parent="_9yUBP7RWlpq5ExPo_8N-34">
          <mxGeometry x="142.5" y="20" width="35" height="35" as="geometry" />
        </mxCell>
        <mxCell id="_9yUBP7RWlpq5ExPo_8N-24" value="" style="whiteSpace=wrap;html=1;aspect=fixed;" vertex="1" parent="_9yUBP7RWlpq5ExPo_8N-34">
          <mxGeometry x="142.5" y="60" width="35" height="35" as="geometry" />
        </mxCell>
        <mxCell id="_9yUBP7RWlpq5ExPo_8N-25" value="" style="whiteSpace=wrap;html=1;aspect=fixed;" vertex="1" parent="_9yUBP7RWlpq5ExPo_8N-34">
          <mxGeometry x="142.5" y="100" width="35" height="35" as="geometry" />
        </mxCell>
        <mxCell id="_9yUBP7RWlpq5ExPo_8N-46" value="" style="endArrow=none;html=1;rounded=0;strokeWidth=4;" edge="1" parent="_9yUBP7RWlpq5ExPo_8N-34">
          <mxGeometry width="50" height="50" relative="1" as="geometry">
            <mxPoint x="200" y="330" as="sourcePoint" />
            <mxPoint y="430" as="targetPoint" />
            <Array as="points">
              <mxPoint x="200" y="280" />
              <mxPoint y="280" />
            </Array>
          </mxGeometry>
        </mxCell>
        <mxCell id="_9yUBP7RWlpq5ExPo_8N-35" value="" style="group" vertex="1" connectable="0" parent="1">
          <mxGeometry x="20" y="70" width="200" height="140" as="geometry" />
        </mxCell>
        <mxCell id="_9yUBP7RWlpq5ExPo_8N-5" value="" style="ellipse;whiteSpace=wrap;html=1;aspect=fixed;" vertex="1" parent="_9yUBP7RWlpq5ExPo_8N-35">
          <mxGeometry y="20" width="80" height="80" as="geometry" />
        </mxCell>
        <mxCell id="_9yUBP7RWlpq5ExPo_8N-6" value="" style="ellipse;whiteSpace=wrap;html=1;aspect=fixed;" vertex="1" parent="_9yUBP7RWlpq5ExPo_8N-35">
          <mxGeometry x="10" y="40" width="40" height="40" as="geometry" />
        </mxCell>
        <mxCell id="_9yUBP7RWlpq5ExPo_8N-9" value="" style="rounded=0;whiteSpace=wrap;html=1;" vertex="1" parent="_9yUBP7RWlpq5ExPo_8N-35">
          <mxGeometry x="80" y="30" width="120" height="60" as="geometry" />
        </mxCell>
        <mxCell id="_9yUBP7RWlpq5ExPo_8N-8" value="" style="rounded=0;whiteSpace=wrap;html=1;rotation=90;" vertex="1" parent="_9yUBP7RWlpq5ExPo_8N-35">
          <mxGeometry x="20" y="55" width="120" height="10" as="geometry" />
        </mxCell>
        <mxCell id="_9yUBP7RWlpq5ExPo_8N-57" value="&lt;font style=&quot;font-size: 16px;&quot;&gt;CHAPA / CONTACTO&lt;/font&gt;" style="text;html=1;align=center;verticalAlign=middle;whiteSpace=wrap;rounded=0;" vertex="1" parent="_9yUBP7RWlpq5ExPo_8N-35">
          <mxGeometry x="110" y="110" width="60" height="30" as="geometry" />
        </mxCell>
        <mxCell id="_9yUBP7RWlpq5ExPo_8N-36" value="" style="group" vertex="1" connectable="0" parent="1">
          <mxGeometry x="80" y="350" width="170" height="130" as="geometry" />
        </mxCell>
        <mxCell id="_9yUBP7RWlpq5ExPo_8N-11" value="" style="shape=hexagon;perimeter=hexagonPerimeter2;whiteSpace=wrap;html=1;fixedSize=1;" vertex="1" parent="_9yUBP7RWlpq5ExPo_8N-36">
          <mxGeometry width="60" height="50" as="geometry" />
        </mxCell>
        <mxCell id="_9yUBP7RWlpq5ExPo_8N-12" value="" style="shape=hexagon;perimeter=hexagonPerimeter2;whiteSpace=wrap;html=1;fixedSize=1;" vertex="1" parent="_9yUBP7RWlpq5ExPo_8N-36">
          <mxGeometry x="110" width="60" height="50" as="geometry" />
        </mxCell>
        <mxCell id="_9yUBP7RWlpq5ExPo_8N-10" value="&lt;font style=&quot;font-size: 18px;&quot;&gt;12 Volts&lt;/font&gt;" style="rounded=0;whiteSpace=wrap;html=1;" vertex="1" parent="_9yUBP7RWlpq5ExPo_8N-36">
          <mxGeometry y="20" width="170" height="110" as="geometry" />
        </mxCell>
        <mxCell id="_9yUBP7RWlpq5ExPo_8N-14" value="&lt;div style=&quot;font-size: 28px;&quot;&gt;+&lt;/div&gt;" style="text;html=1;align=center;verticalAlign=middle;whiteSpace=wrap;rounded=0;" vertex="1" parent="_9yUBP7RWlpq5ExPo_8N-36">
          <mxGeometry x="110" y="20" width="60" height="30" as="geometry" />
        </mxCell>
        <mxCell id="_9yUBP7RWlpq5ExPo_8N-15" value="&lt;font style=&quot;font-size: 25px;&quot;&gt;-&lt;/font&gt;" style="text;html=1;align=center;verticalAlign=middle;whiteSpace=wrap;rounded=0;" vertex="1" parent="_9yUBP7RWlpq5ExPo_8N-36">
          <mxGeometry y="20" width="60" height="30" as="geometry" />
        </mxCell>
        <mxCell id="_9yUBP7RWlpq5ExPo_8N-32" value="&lt;div&gt;&lt;font style=&quot;font-size: 19px;&quot;&gt;&lt;br&gt;&lt;/font&gt;&lt;/div&gt;&lt;font style=&quot;font-size: 19px;&quot;&gt;&lt;div&gt;&lt;font style=&quot;font-size: 19px;&quot;&gt;&lt;br&gt;&lt;/font&gt;&lt;/div&gt;PROTOTIPO&lt;/font&gt;" style="rounded=0;whiteSpace=wrap;html=1;" vertex="1" parent="1">
          <mxGeometry x="620" y="350" width="200" height="125" as="geometry" />
        </mxCell>
        <mxCell id="_9yUBP7RWlpq5ExPo_8N-33" value="&lt;div&gt;&lt;br&gt;&lt;/div&gt;&lt;div&gt;&lt;br&gt;&lt;/div&gt;RÉLE" style="rounded=0;whiteSpace=wrap;html=1;" vertex="1" parent="1">
          <mxGeometry x="620" y="350" width="130" height="50" as="geometry" />
        </mxCell>
        <mxCell id="_9yUBP7RWlpq5ExPo_8N-40" value="NC" style="text;html=1;align=center;verticalAlign=middle;whiteSpace=wrap;rounded=0;" vertex="1" parent="1">
          <mxGeometry x="610" y="350" width="60" height="30" as="geometry" />
        </mxCell>
        <mxCell id="_9yUBP7RWlpq5ExPo_8N-41" value="COM" style="text;html=1;align=center;verticalAlign=middle;whiteSpace=wrap;rounded=0;" vertex="1" parent="1">
          <mxGeometry x="650" y="350" width="60" height="30" as="geometry" />
        </mxCell>
        <mxCell id="_9yUBP7RWlpq5ExPo_8N-42" value="NO" style="text;html=1;align=center;verticalAlign=middle;whiteSpace=wrap;rounded=0;" vertex="1" parent="1">
          <mxGeometry x="700" y="350" width="60" height="30" as="geometry" />
        </mxCell>
        <mxCell id="_9yUBP7RWlpq5ExPo_8N-47" value="" style="endArrow=none;html=1;rounded=0;strokeWidth=4;" edge="1" parent="1">
          <mxGeometry width="50" height="50" relative="1" as="geometry">
            <mxPoint x="110" y="350" as="sourcePoint" />
            <mxPoint x="440" y="450" as="targetPoint" />
            <Array as="points">
              <mxPoint x="20" y="350" />
              <mxPoint x="20" y="520" />
              <mxPoint x="440" y="520" />
            </Array>
          </mxGeometry>
        </mxCell>
        <mxCell id="_9yUBP7RWlpq5ExPo_8N-48" value="" style="endArrow=none;html=1;rounded=0;entryX=0.5;entryY=0;entryDx=0;entryDy=0;fillColor=#e51400;strokeColor=#B20000;strokeWidth=6;" edge="1" parent="1" target="_9yUBP7RWlpq5ExPo_8N-12">
          <mxGeometry width="50" height="50" relative="1" as="geometry">
            <mxPoint x="220" y="155" as="sourcePoint" />
            <mxPoint x="290" y="155" as="targetPoint" />
            <Array as="points">
              <mxPoint x="290" y="155" />
              <mxPoint x="290" y="250" />
              <mxPoint x="220" y="250" />
            </Array>
          </mxGeometry>
        </mxCell>
        <mxCell id="_9yUBP7RWlpq5ExPo_8N-49" value="" style="endArrow=none;html=1;rounded=0;strokeWidth=4;" edge="1" parent="1">
          <mxGeometry width="50" height="50" relative="1" as="geometry">
            <mxPoint x="220" y="140" as="sourcePoint" />
            <mxPoint x="370" y="520" as="targetPoint" />
            <Array as="points">
              <mxPoint x="370" y="140" />
            </Array>
          </mxGeometry>
        </mxCell>
        <mxCell id="_9yUBP7RWlpq5ExPo_8N-51" value="" style="endArrow=none;html=1;rounded=0;" edge="1" parent="1" source="_9yUBP7RWlpq5ExPo_8N-52">
          <mxGeometry width="50" height="50" relative="1" as="geometry">
            <mxPoint x="220" y="100" as="sourcePoint" />
            <mxPoint x="90" y="50" as="targetPoint" />
            <Array as="points" />
          </mxGeometry>
        </mxCell>
        <mxCell id="_9yUBP7RWlpq5ExPo_8N-53" value="" style="endArrow=none;html=1;rounded=0;fillColor=#60a917;strokeColor=#2D7600;strokeWidth=4;" edge="1" parent="1" target="_9yUBP7RWlpq5ExPo_8N-52">
          <mxGeometry width="50" height="50" relative="1" as="geometry">
            <mxPoint x="220" y="100" as="sourcePoint" />
            <mxPoint x="90" y="50" as="targetPoint" />
            <Array as="points">
              <mxPoint x="330" y="100" />
              <mxPoint x="330" y="50" />
              <mxPoint x="170" y="50" />
            </Array>
          </mxGeometry>
        </mxCell>
        <mxCell id="_9yUBP7RWlpq5ExPo_8N-52" value="ACCESORIOS" style="text;html=1;align=center;verticalAlign=middle;whiteSpace=wrap;rounded=0;fontSize=15;" vertex="1" parent="1">
          <mxGeometry x="80" y="20" width="60" height="30" as="geometry" />
        </mxCell>
        <mxCell id="_9yUBP7RWlpq5ExPo_8N-54" value="" style="endArrow=none;dashed=1;html=1;dashPattern=1 3;strokeWidth=4;rounded=0;" edge="1" parent="1">
          <mxGeometry width="50" height="50" relative="1" as="geometry">
            <mxPoint x="220" y="120" as="sourcePoint" />
            <mxPoint x="680" y="60" as="targetPoint" />
            <Array as="points">
              <mxPoint x="420" y="120" />
              <mxPoint x="420" y="10" />
              <mxPoint x="680" y="10" />
            </Array>
          </mxGeometry>
        </mxCell>
        <mxCell id="_9yUBP7RWlpq5ExPo_8N-55" value="&lt;font style=&quot;font-size: 19px;&quot;&gt;CORTA CORRIENTE&lt;/font&gt;" style="text;html=1;align=center;verticalAlign=middle;whiteSpace=wrap;rounded=0;" vertex="1" parent="1">
          <mxGeometry x="720" y="100" width="60" height="30" as="geometry" />
        </mxCell>
        <mxCell id="_9yUBP7RWlpq5ExPo_8N-56" value="" style="endArrow=none;dashed=1;html=1;dashPattern=1 3;strokeWidth=4;rounded=0;entryX=0.5;entryY=0;entryDx=0;entryDy=0;" edge="1" parent="1" target="_9yUBP7RWlpq5ExPo_8N-41">
          <mxGeometry width="50" height="50" relative="1" as="geometry">
            <mxPoint x="610" y="60" as="sourcePoint" />
            <mxPoint x="680" y="60" as="targetPoint" />
            <Array as="points">
              <mxPoint x="680" y="60" />
            </Array>
          </mxGeometry>
        </mxCell>
      </root>
    </mxGraphModel>
  </diagram>
</mxfile>
